<svg xmlns="http://www.w3.org/2000/svg" version="1.1" viewBox="-5.0 -10.0 110.0 135.0">
 <path d="m87.262 27.262-36.312-20.945c-0.63281-0.42188-1.4727-0.42188-2.1055 0l-36.211 20.945c-0.63281 0.42188-1.0508 1.0508-1.0508 1.7891v41.895c0 0.73828 0.42188 1.4727 1.0508 1.7891l36.211 20.949c0.31641 0.21094 0.73828 0.31641 1.0508 0.31641 0.31641 0 0.73828-0.10547 1.0508-0.31641l36.211-20.949c0.63281-0.42188 1.0508-1.0508 1.0508-1.7891l0.003907-41.895c0.10547-0.73438-0.31641-1.4727-0.94922-1.7891zm-57.367 30.422-12.945-26.633 29.156-1.4727zm20-26.211 16.527 28.633h-33.055zm16.211 32.844-16.211 23.789-16.105-23.789zm-12.422-34.738 29.156 1.4727-12.945 26.633zm-1.6836-4.3164v-13.473l25.578 14.738zm-4.2109 0-25.578 1.2617 25.578-14.738zm-20.84 36-11.16 6.1055v-29.156zm2.1016 3.6875 13.895 20.527-24.945-14.527zm41.688 0 11.156 6-25.051 14.523zm2.1055-3.6875 11.262-23.051v29.156z"/>
<text x="0.0" y="117.5" font-size="5.0" font-weight="bold" font-family="Arbeit Regular, Helvetica, Arial-Unicode, Arial, Sans-serif" fill="#000000">Created by Guilherme Furtado</text><text x="0.0" y="122.5" font-size="5.0" font-weight="bold" font-family="Arbeit Regular, Helvetica, Arial-Unicode, Arial, Sans-serif" fill="#000000">from Noun Project</text></svg>